# xmcd
#
# Track frame offsets:
#	150
#	19237
#	46353
#	63998
#	91588
#	115756
#	138450
#	157713
#	180031
#
# Disc length: 2704 seconds
#
# Revision: 1
# Processed by: cddbd v1.5.2PL0 Copyright (c) Steve Scherf et al.
# Submitted via: EZCDAudioConverter 8.0.2.1
#
DISCID=5f0a8e09
DTITLE=Randy - Ước Gì Cho Quê Hương
DYEAR=2012
DGENRE=Punk
TTITLE0=Ai cho tôi tình yêu
TTITLE1=Ai khổ vì ai
TTITLE2=Khán giả gần xa
TTITLE3=Mẹ
TTITLE4=Nước mắt mẹ hiền
TTITLE5=Ơn nghĩa sinh thành
TTITLE6=Ước Gì Cho Quê Hương
TTITLE7=Vết thương vô hình
TTITLE8=Xuân này bên mẹ
EXTD=
EXTT0=
EXTT1=
EXTT2=
EXTT3=
EXTT4=
EXTT5=
EXTT6=
EXTT7=
EXTT8=
PLAYORDER=
